<svg width="24.000000" height="24.000000" viewBox="0 0 24 24" fill="none" xmlns="http://www.w3.org/2000/svg" xmlns:xlink="http://www.w3.org/1999/xlink">
	<desc>
			Created with Pixso.
	</desc>
	<defs>
		<clipPath id="clip104_2295">
			<rect id="Cart1" rx="0.000000" width="23.000000" height="23.000000" transform="translate(0.500000 0.500000)" fill="white" fill-opacity="0"/>
		</clipPath>
	</defs>
	<rect id="Cart1" rx="0.000000" width="23.000000" height="23.000000" transform="translate(0.500000 0.500000)" fill="#FFFFFF" fill-opacity="0"/>
	<g clip-path="url(#clip104_2295)">
		<path id="Vector" d="M8.25 20.25C7.83 20.25 7.5 19.91 7.5 19.5C7.5 19.08 7.83 18.75 8.25 18.75C8.66 18.75 9 19.08 9 19.5C9 19.91 8.66 20.25 8.25 20.25Z" stroke="#000000" stroke-opacity="1.000000" stroke-width="1.500000" stroke-linejoin="round"/>
		<path id="Vector" d="M18.75 20.25C18.33 20.25 18 19.91 18 19.5C18 19.08 18.33 18.75 18.75 18.75C19.16 18.75 19.5 19.08 19.5 19.5C19.5 19.91 19.16 20.25 18.75 20.25Z" stroke="#000000" stroke-opacity="1.000000" stroke-width="1.500000" stroke-linejoin="round"/>
		<path id="Vector" d="M2.25 3.75L5.25 3.75L7.5 16.5L19.5 16.5" stroke="#000000" stroke-opacity="1.000000" stroke-width="1.500000" stroke-linejoin="round" stroke-linecap="round"/>
		<path id="Vector" d="M7.5 12.5L19.19 12.5C19.27 12.5 19.36 12.47 19.43 12.41C19.49 12.36 19.54 12.28 19.56 12.19L20.91 5.44C20.92 5.39 20.92 5.33 20.9 5.28C20.89 5.23 20.86 5.18 20.83 5.13C20.79 5.09 20.75 5.05 20.7 5.03C20.65 5.01 20.59 4.99 20.54 5L6 5" stroke="#000000" stroke-opacity="1.000000" stroke-width="1.500000" stroke-linejoin="round" stroke-linecap="round"/>
	</g>
</svg>
